<svg id="SvgjsSvg1001" width="100%" height="100%" xmlns="http://www.w3.org/2000/svg" version="1.1" xmlns:xlink="http://www.w3.org/1999/xlink" xmlns:svgjs="http://svgjs.com/svgjs"><rect id="SvgjsRect1008" width="100" height="50" stroke="#000000" fill="#00ff40" x="789" y="628.6" stroke-width="1px"></rect><rect id="SvgjsRect1009" width="156" height="100.04324324324324" stroke="#000000" fill="#00ff40" x="115" y="578.5567567567568" stroke-width="1px"></rect><rect id="SvgjsRect1010" width="156" height="100.04324324324324" stroke="#000000" fill="#00ff40" x="115" y="478.5135135135136" stroke-width="1px"></rect><rect id="SvgjsRect1011" width="156" height="100.04324324324324" stroke="#000000" fill="#00ff40" x="115" y="378.47027027027036" stroke-width="1px"></rect><rect id="SvgjsRect1012" width="156" height="100.04324324324324" stroke="#000000" fill="#00ff40" x="115" y="278.4270270270271" stroke-width="1px"></rect><rect id="SvgjsRect1013" width="156" height="100.04324324324324" stroke="#000000" fill="#00ff40" x="115" y="178.38378378378388" stroke-width="1px"></rect><rect id="SvgjsRect1014" width="156" height="100.04324324324324" stroke="#000000" fill="#00ff40" x="271" y="578.5567567567568" stroke-width="1px"></rect><rect id="SvgjsRect1015" width="156" height="100.04324324324324" stroke="#000000" fill="#00ff40" x="271" y="478.5135135135136" stroke-width="1px"></rect><rect id="SvgjsRect1016" width="156" height="100.04324324324324" stroke="#000000" fill="#00ff40" x="271" y="378.47027027027036" stroke-width="1px"></rect><rect id="SvgjsRect1017" width="156" height="100.04324324324324" stroke="#000000" fill="#00ff40" x="271" y="278.4270270270271" stroke-width="1px"></rect><rect id="SvgjsRect1018" width="156" height="100.04324324324324" stroke="#000000" fill="#00ff40" x="271" y="178.38378378378388" stroke-width="1px"></rect><rect id="SvgjsRect1019" width="156" height="100.04324324324324" stroke="#000000" fill="#00ff40" x="427" y="578.5567567567568" stroke-width="1px"></rect><rect id="SvgjsRect1020" width="156" height="100.04324324324324" stroke="#000000" fill="#00ff40" x="427" y="478.5135135135136" stroke-width="1px"></rect><rect id="SvgjsRect1021" width="156" height="100.04324324324324" stroke="#000000" fill="#00ff40" x="427" y="378.47027027027036" stroke-width="1px"></rect><rect id="SvgjsRect1022" width="156" height="100.04324324324324" stroke="#000000" fill="#00ff40" x="427" y="278.4270270270271" stroke-width="1px"></rect><rect id="SvgjsRect1023" width="156" height="100.04324324324324" stroke="#000000" fill="#00ff40" x="427" y="178.38378378378388" stroke-width="1px"></rect><rect id="SvgjsRect1024" width="156" height="100.04324324324324" stroke="#000000" fill="#00ff40" x="583" y="578.5567567567568" stroke-width="1px"></rect><rect id="SvgjsRect1025" width="156" height="100.04324324324324" stroke="#000000" fill="#00ff40" x="583" y="478.5135135135136" stroke-width="1px"></rect><rect id="SvgjsRect1026" width="156" height="100.04324324324324" stroke="#000000" fill="#00ff40" x="583" y="378.47027027027036" stroke-width="1px"></rect><rect id="SvgjsRect1027" width="156" height="100.04324324324324" stroke="#000000" fill="#00ff40" x="583" y="278.4270270270271" stroke-width="1px"></rect><rect id="SvgjsRect1028" width="156" height="100.04324324324324" stroke="#000000" fill="#00ff40" x="583" y="178.38378378378388" stroke-width="1px"></rect><rect id="SvgjsRect1029" width="50" height="50" stroke="#000000" fill="#00ff40" x="689" y="78.38378378378388" stroke-width="1px"></rect><rect id="SvgjsRect1030" width="156" height="100.04324324324324" stroke="#000000" fill="#ff0000" x="939" y="578.5567567567568" stroke-width="1px"></rect><rect id="SvgjsRect1031" width="156" height="100.04324324324324" stroke="#000000" fill="#00ff40" x="939" y="478.5135135135136" stroke-width="1px"></rect><rect id="SvgjsRect1032" width="156" height="100.04324324324324" stroke="#000000" fill="#00ff40" x="939" y="378.47027027027036" stroke-width="1px"></rect><rect id="SvgjsRect1033" width="156" height="100.04324324324324" stroke="#000000" fill="#ff0000" x="939" y="278.4270270270271" stroke-width="1px"></rect><rect id="SvgjsRect1034" width="156" height="100.04324324324324" stroke="#000000" fill="#ff0000" x="939" y="178.38378378378388" stroke-width="1px"></rect><rect id="SvgjsRect1035" width="50" height="50" stroke="#ffff1c" fill="#00ff40" x="939" y="78.38378378378388" stroke-width="1px"></rect><rect id="SvgjsRect1036" width="156" height="100.04324324324324" stroke="#000000" fill="#ff0000" x="1095" y="578.5567567567568" stroke-width="1px"></rect><rect id="SvgjsRect1037" width="156" height="100.04324324324324" stroke="#000000" fill="#00ff40" x="1095" y="478.5135135135136" stroke-width="1px"></rect><rect id="SvgjsRect1038" width="156" height="100.04324324324324" stroke="#000000" fill="#00ff40" x="1095" y="378.47027027027036" stroke-width="1px"></rect><rect id="SvgjsRect1039" width="156" height="100.04324324324324" stroke="#000000" fill="#ff0000" x="1095" y="278.4270270270271" stroke-width="1px"></rect><rect id="SvgjsRect1040" width="156" height="100.04324324324324" stroke="#000000" fill="#ff0000" x="1095" y="178.38378378378388" stroke-width="1px"></rect><rect id="SvgjsRect1041" width="156" height="100.04324324324324" stroke="#000000" fill="#ff0000" x="1251" y="578.5567567567568" stroke-width="1px"></rect><rect id="SvgjsRect1042" width="156" height="100.04324324324324" stroke="#000000" fill="#00ff40" x="1251" y="478.5135135135136" stroke-width="1px"></rect><rect id="SvgjsRect1043" width="156" height="100.04324324324324" stroke="#000000" fill="#00ff40" x="1251" y="378.47027027027036" stroke-width="1px"></rect><rect id="SvgjsRect1044" width="156" height="100.04324324324324" stroke="#000000" fill="#ff0000" x="1251" y="278.4270270270271" stroke-width="1px"></rect><rect id="SvgjsRect1045" width="156" height="100.04324324324324" stroke="#000000" fill="#ff0000" x="1251" y="178.38378378378388" stroke-width="1px"></rect><rect id="SvgjsRect1046" width="156" height="100.04324324324324" stroke="#000000" fill="#ff0000" x="1407" y="578.5567567567568" stroke-width="1px"></rect><rect id="SvgjsRect1047" width="156" height="100.04324324324324" stroke="#000000" fill="#00ff40" x="1407" y="478.5135135135136" stroke-width="1px"></rect><rect id="SvgjsRect1048" width="156" height="100.04324324324324" stroke="#000000" fill="#00ff40" x="1407" y="378.47027027027036" stroke-width="1px"></rect><rect id="SvgjsRect1049" width="156" height="100.04324324324324" stroke="#000000" fill="#ff0000" x="1407" y="278.4270270270271" stroke-width="1px"></rect><rect id="SvgjsRect1050" width="156" height="100.04324324324324" stroke="#000000" fill="#ff0000" x="1407" y="178.38378378378388" stroke-width="1px"></rect></svg>
