<svg id="SvgjsSvg1001" width="100%" height="100%" xmlns="http://www.w3.org/2000/svg" version="1.1" xmlns:xlink="http://www.w3.org/1999/xlink" xmlns:svgjs="http://svgjs.com/svgjs"><rect id="SvgjsRect1008" width="100" height="50" stroke="#000000" fill="#00ff40" x="789" y="628.6" stroke-width="1px"></rect><rect id="SvgjsRect1009" width="148.97297297297297" height="198.8" stroke="#000000" fill="#00ff40" x="143.10810810810813" y="479.8" stroke-width="1px"></rect><rect id="SvgjsRect1010" width="148.97297297297297" height="198.8" stroke="#000000" fill="#00ff40" x="143.10810810810813" y="281" stroke-width="1px"></rect><rect id="SvgjsRect1011" width="148.97297297297297" height="198.8" stroke="#000000" fill="#00ff40" x="292.0810810810811" y="479.8" stroke-width="1px"></rect><rect id="SvgjsRect1012" width="148.97297297297297" height="198.8" stroke="#000000" fill="#00ff40" x="292.0810810810811" y="281" stroke-width="1px"></rect><rect id="SvgjsRect1013" width="148.97297297297297" height="198.8" stroke="#000000" fill="#00ff40" x="441.05405405405406" y="479.8" stroke-width="1px"></rect><rect id="SvgjsRect1014" width="148.97297297297297" height="198.8" stroke="#000000" fill="#00ff40" x="441.05405405405406" y="281" stroke-width="1px"></rect><rect id="SvgjsRect1015" width="148.97297297297297" height="198.8" stroke="#000000" fill="#00ff40" x="590.0270270270271" y="479.8" stroke-width="1px"></rect><rect id="SvgjsRect1016" width="148.97297297297297" height="198.8" stroke="#000000" fill="#00ff40" x="590.0270270270271" y="281" stroke-width="1px"></rect><rect id="SvgjsRect1017" width="50" height="50" stroke="#000000" fill="#ff0000" x="689" y="181" stroke-width="1px"></rect><rect id="SvgjsRect1018" width="148.97297297297297" height="198.8" stroke="#000000" fill="#00ff40" x="939" y="479.8" stroke-width="1px"></rect><rect id="SvgjsRect1019" width="148.97297297297297" height="198.8" stroke="#000000" fill="#00ff40" x="939" y="281" stroke-width="1px"></rect><rect id="SvgjsRect1020" width="50" height="50" stroke="#000000" fill="#ff0000" x="939" y="181" stroke-width="1px"></rect><rect id="SvgjsRect1021" width="148.97297297297297" height="198.8" stroke="#000000" fill="#00ff40" x="1087.972972972973" y="479.8" stroke-width="1px"></rect><rect id="SvgjsRect1022" width="148.97297297297297" height="198.8" stroke="#000000" fill="#00ff40" x="1087.972972972973" y="281" stroke-width="1px"></rect><rect id="SvgjsRect1023" width="148.97297297297297" height="198.8" stroke="#000000" fill="#00ff40" x="1236.9459459459458" y="479.8" stroke-width="1px"></rect><rect id="SvgjsRect1024" width="148.97297297297297" height="198.8" stroke="#000000" fill="#00ff40" x="1236.9459459459458" y="281" stroke-width="1px"></rect><rect id="SvgjsRect1025" width="148.97297297297297" height="198.8" stroke="#000000" fill="#00ff40" x="1385.918918918919" y="479.8" stroke-width="1px"></rect><rect id="SvgjsRect1026" width="148.97297297297297" height="198.8" stroke="#000000" fill="#00ff40" x="1385.918918918919" y="281" stroke-width="1px"></rect></svg>
